<svg width="114" height="99" fill="none" xmlns="http://www.w3.org/2000/svg"><circle cx="36" cy="63" r="36" fill="#F90"/><g clip-path="url(#clip0)" fill-rule="evenodd" clip-rule="evenodd" fill="#000"><path d="M60.678 9.294a.584.584 0 01.8-.215l34.229 19.824a.59.59 0 01.215.803.584.584 0 01-.8.215l-34.23-19.824a.589.589 0 01-.214-.803z"/><path d="M74.101 1.125a8.399 8.399 0 018.399 0l27.3 15.604a8.395 8.395 0 014.2 7.267v31.208a8.4 8.4 0 01-4.2 7.267l-.002.002L82.5 78.074a8.399 8.399 0 01-8.4 0L46.802 62.473l-.002-.002a8.4 8.4 0 01-4.2-7.267V23.996a8.402 8.402 0 014.2-7.267l.002-.002L74.1 1.126l.001-.001zM78.3 1.2a7.199 7.199 0 00-3.6.965l-.002.001L47.4 17.768h-.001a7.2 7.2 0 00-3.6 6.23v31.205a7.204 7.204 0 003.6 6.228l27.3 15.604a7.198 7.198 0 007.2 0l.003-.001L109.2 61.432l.001-.001a7.199 7.199 0 003.599-6.228V23.997a7.199 7.199 0 00-3.599-6.228h-.001L81.902 2.165l-.002-.001a7.199 7.199 0 00-3.6-.965z"/><path d="M43.88 20.093a.596.596 0 01.809-.214l33.31 19.058 33.312-19.058a.596.596 0 01.809.213.582.582 0 01-.216.8l-33.608 19.23a.598.598 0 01-.593 0l-33.607-19.23a.582.582 0 01-.216-.8z"/><path d="M78 39c.331 0 .6.263.6.587v38.426a.593.593 0 01-.6.587.593.593 0 01-.6-.587V39.586c0-.323.268-.586.6-.586z"/></g><defs><clipPath id="clip0"><path fill="#fff" transform="translate(42.6)" d="M0 0h71.4v79.2H0z"/></clipPath></defs></svg>