<svg width="178" height="153" fill="none" xmlns="http://www.w3.org/2000/svg"><circle cx="60" cy="93" r="59.5" fill="#F90" stroke="#F90"/><path fill-rule="evenodd" clip-rule="evenodd" d="M114 47c-8.837 0-16 7.163-16 16s7.163 16 16 16 16-7.163 16-16-7.163-16-16-16zM96 63c0-9.941 8.059-18 18-18s18 8.059 18 18-8.059 18-18 18-18-8.059-18-18z" fill="#000"/><path fill-rule="evenodd" clip-rule="evenodd" d="M114.5 2.005a10.36 10.36 0 00-10.361 10.36v.971a10.372 10.372 0 01-6.289 9.496.994.994 0 01-.395.081h-.248a10.377 10.377 0 01-11.248-2.16l-.008-.008-.34-.341a10.364 10.364 0 00-11.299-2.25 10.36 10.36 0 00-3.362 2.25 10.361 10.361 0 000 14.66l.348.35a10.377 10.377 0 012.088 11.417 10.377 10.377 0 01-9.485 6.763h-.535a10.36 10.36 0 000 20.721h.97A10.377 10.377 0 0173.83 80.6a10.378 10.378 0 01-2.077 11.442l-.008.008-.341.34a10.364 10.364 0 00-2.25 11.299 10.364 10.364 0 002.25 3.362v.001a10.375 10.375 0 007.33 3.039 10.368 10.368 0 007.33-3.039l.35-.349a10.378 10.378 0 0111.417-2.088 10.377 10.377 0 016.763 9.485v.535a10.36 10.36 0 0020.721 0v-.97a10.38 10.38 0 016.284-9.494 10.371 10.371 0 0111.442 2.077l.008.008.341.341a10.356 10.356 0 0011.298 2.249 10.347 10.347 0 003.362-2.249h.001a10.37 10.37 0 002.249-11.298 10.375 10.375 0 00-2.249-3.362l-.349-.35a10.378 10.378 0 01-2.078-11.442 10.38 10.38 0 019.495-6.284h.515a10.36 10.36 0 100-20.72h-.97a10.378 10.378 0 01-9.496-6.29.994.994 0 01-.081-.395v-.248a10.373 10.373 0 012.16-11.248l.008-.008.341-.34a10.361 10.361 0 000-14.661 10.368 10.368 0 00-7.33-3.04 10.362 10.362 0 00-7.331 3.04l-.349.348a10.377 10.377 0 01-11.441 2.078 10.375 10.375 0 01-6.284-9.495v-.515A10.36 10.36 0 00114.5 2.006zm-8.744 1.617a12.365 12.365 0 0121.11 8.744v.509a8.366 8.366 0 005.074 7.66l.01.004a8.372 8.372 0 009.23-1.67l.004-.004.333-.333a12.363 12.363 0 0117.497 0 12.37 12.37 0 010 17.498l-.333.331-.004.004a8.368 8.368 0 00-1.671 9.23.991.991 0 01.086.406v.242a8.375 8.375 0 007.578 4.891h.964a12.365 12.365 0 110 24.732h-.509a8.37 8.37 0 00-7.66 5.074l-.004.01a8.38 8.38 0 00-.579 4.873 8.382 8.382 0 002.253 4.361l.333.333a12.358 12.358 0 013.627 8.749 12.37 12.37 0 01-3.627 8.748 12.369 12.369 0 01-17.496 0l-.333-.333-.004-.004a8.373 8.373 0 00-9.231-1.671l-.01.005a8.378 8.378 0 00-5.074 7.659v.964a12.365 12.365 0 11-24.731 0v-.499a8.374 8.374 0 00-5.539-7.674 8.379 8.379 0 00-4.873-.579 8.377 8.377 0 00-4.357 2.25l-.004.003-.333.333a12.357 12.357 0 01-8.749 3.627 12.372 12.372 0 01-8.748-3.627 12.363 12.363 0 01-2.684-13.483 12.365 12.365 0 012.684-4.013l.333-.333a8.371 8.371 0 001.674-9.234l-.004-.01a8.372 8.372 0 00-7.66-5.075h-.963a12.366 12.366 0 110-24.731h.5a8.371 8.371 0 007.673-5.539 8.371 8.371 0 00-1.67-9.23l-.337-.337a12.367 12.367 0 010-17.497 12.366 12.366 0 0117.496 0l.337.337a8.372 8.372 0 009.23 1.67c.128-.056.266-.085.406-.085h.242a8.368 8.368 0 004.891-7.579v-.963c0-3.28 1.303-6.425 3.622-8.744z" fill="#000"/></svg>