<svg width="150" height="48" fill="none" xmlns="http://www.w3.org/2000/svg"><g clip-path="url(#clip0)"><path d="M46.67 24.356c-.738.424-1.635.76-2.688 1.006a14.39 14.39 0 01-3.283.369c-1.533 0-2.84-.185-3.92-.554-1.067-.37-1.874-.883-2.421-1.54a3.507 3.507 0 01-.8-2.277c0-.752.204-1.416.615-1.99.41-.575.978-1.02 1.703-1.335a3.116 3.116 0 01-1.293-1.19 3.463 3.463 0 01-.43-1.703c0-.793.246-1.519.738-2.175.506-.657 1.272-1.184 2.299-1.58 1.026-.397 2.291-.596 3.796-.596.944 0 1.874.09 2.79.267.917.178 1.725.418 2.422.719l-1.108 3.037a9.67 9.67 0 00-3.94-.842c-.971 0-1.696.13-2.175.39-.479.246-.718.595-.718 1.047 0 .82.595 1.231 1.785 1.231h4.063v3.099h-4.33c-.697 0-1.224.116-1.58.349-.356.219-.534.547-.534.985 0 .465.26.827.78 1.087s1.327.39 2.422.39c.78 0 1.58-.102 2.4-.308.835-.219 1.56-.513 2.176-.882l1.231 2.996zm10.46-4.74c1.272.424 1.908 1.3 1.908 2.626 0 1-.39 1.786-1.17 2.36-.78.561-1.929.842-3.448.842h-6.259V14.32h5.972c1.45 0 2.572.253 3.366.76.807.506 1.21 1.217 1.21 2.134 0 .533-.136 1.005-.41 1.416-.274.41-.663.738-1.17.985zm-5.48-.821h2.134c.903 0 1.355-.335 1.355-1.006 0-.643-.452-.964-1.355-.964H51.65v1.97zm2.422 4.125c.944 0 1.416-.342 1.416-1.027 0-.684-.459-1.026-1.375-1.026H51.65v2.053h2.422zm12.148-1.437h-1.314v3.96h-3.899V14.322h3.9v4.104h1.395l2.73-4.104h4.124l-3.735 5.336 3.981 5.787h-4.597l-2.585-3.96zm19.803-7.162v11.123h-3.9V17.42h-2.81l-.083 1.703c-.055 1.45-.198 2.647-.43 3.591-.233.944-.617 1.683-1.15 2.217-.534.52-1.266.78-2.196.78-.479 0-1.108-.09-1.888-.267l.164-3.181c.247.027.41.041.493.041.424 0 .746-.137.964-.41.22-.274.37-.637.452-1.088.082-.465.137-1.08.164-1.847l.164-4.638h10.056zm14.071 0v11.123h-3.715v-1.17c-.41.438-.902.773-1.477 1.006a4.669 4.669 0 01-1.806.348c-1.45 0-2.606-.424-3.468-1.272-.848-.848-1.272-2.12-1.272-3.817v-6.218h3.899v5.582c0 1.6.622 2.401 1.867 2.401.616 0 1.115-.212 1.498-.636.383-.438.575-1.101.575-1.99V14.32h3.899zm14.458 0v9.091c0 2.066-.561 3.612-1.683 4.638-1.121 1.04-2.736 1.56-4.843 1.56a12.34 12.34 0 01-3.078-.37c-.958-.246-1.772-.609-2.442-1.087l1.416-2.73c.452.37 1.019.657 1.703.862a6.835 6.835 0 002.052.328c1.027 0 1.779-.225 2.258-.677.479-.451.718-1.122.718-2.01v-.37c-.752.875-1.854 1.313-3.304 1.313a5.783 5.783 0 01-2.729-.657 5.177 5.177 0 01-1.991-1.887c-.492-.821-.739-1.765-.739-2.832 0-1.054.247-1.984.739-2.791a4.985 4.985 0 011.991-1.888 5.641 5.641 0 012.729-.678c1.587 0 2.75.514 3.489 1.54V14.32h3.714zm-6.279 7.45c.697 0 1.272-.213 1.723-.637.466-.424.698-.971.698-1.642 0-.67-.226-1.21-.677-1.62-.452-.425-1.033-.637-1.744-.637-.712 0-1.3.212-1.765.636-.452.41-.677.951-.677 1.622 0 .67.232 1.217.697 1.641.465.424 1.047.636 1.745.636zm-68.39 9.109v6.696h-1.875v-5.195h-2.545v5.195h-1.865V30.88h6.285zm4.101 1.425c.568 0 1.062.108 1.483.325.421.217.743.53.967.938.23.401.344.873.344 1.416 0 .535-.105 1.007-.316 1.416-.21.401-.507.714-.89.937-.382.217-.826.325-1.33.325-.593 0-1.058-.181-1.396-.545v2.315h-1.818v-4.43c0-.535.121-1.007.364-1.415a2.439 2.439 0 011.033-.948c.446-.223.966-.334 1.56-.334zm-.086 3.913c.325 0 .587-.112.785-.335.204-.23.306-.53.306-.9s-.102-.666-.306-.89a.984.984 0 00-.785-.344.984.984 0 00-.784.345c-.198.223-.297.52-.297.89 0 .376.096.676.287.899.198.223.462.335.794.335zm6.313 1.444a3.235 3.235 0 01-1.502-.344 2.634 2.634 0 01-1.053-.957 2.613 2.613 0 01-.373-1.387c0-.51.125-.97.373-1.378a2.58 2.58 0 011.043-.947c.447-.23.95-.344 1.512-.344.561 0 1.065.114 1.512.344.446.223.794.539 1.043.947.248.402.373.861.373 1.378 0 .517-.125.979-.373 1.387a2.567 2.567 0 01-1.043.957c-.447.23-.95.344-1.512.344zm0-1.444c.319 0 .58-.109.785-.326.204-.223.306-.529.306-.918 0-.383-.102-.682-.306-.9a1.03 1.03 0 00-.785-.325c-.319 0-.58.109-.785.326-.204.216-.306.516-.306.899 0 .389.102.695.306.918.205.217.466.326.785.326zm6.526.057c.249 0 .462-.035.641-.105.185-.07.37-.185.555-.345l.947.995c-.491.562-1.224.842-2.2.842-.606 0-1.139-.114-1.598-.344a2.605 2.605 0 01-1.072-.957 2.612 2.612 0 01-.373-1.387c0-.51.124-.966.373-1.368.25-.408.59-.727 1.024-.957a3.13 3.13 0 011.473-.344c.504 0 .964.105 1.378.315.421.205.756.507 1.005.91.248.395.373.867.373 1.415l-3.703.708c.198.415.59.622 1.177.622zm-.22-2.679c-.313 0-.568.1-.765.297-.198.191-.31.469-.335.832l2.105-.411a.943.943 0 00-.364-.517 1.038 1.038 0 00-.641-.2zm6.043 2.134h-.613v1.846H60.13v-5.185h1.817v1.913h.651l1.272-1.913h1.923l-1.74 2.487 1.855 2.698h-2.143L62.56 35.73zm10.706-3.425c.637 0 1.144.191 1.52.574.383.382.575.96.575 1.731v2.966h-1.818v-2.669c0-.364-.07-.631-.21-.804-.134-.172-.326-.258-.575-.258a.83.83 0 00-.66.287c-.165.191-.248.482-.248.87v2.574h-1.818v-2.669c0-.708-.262-1.062-.785-1.062-.28 0-.504.096-.67.287-.165.191-.248.482-.248.87v2.574H66.51v-5.185h1.732v.545c.191-.21.417-.367.679-.469a2.3 2.3 0 01.87-.162c.364 0 .69.067.976.2.287.134.52.339.699.613a2.01 2.01 0 01.775-.603c.312-.14.654-.21 1.023-.21zm3.195.085h1.809v1.924h1.865V32.39h1.818v5.185h-1.818v-1.818H78.27v1.818h-1.81V32.39zm9.186 5.34c-1.715 0-2.573-.737-2.573-2.21v-3.13h1.808v1.646a1.76 1.76 0 01.536-.22c.23-.057.491-.086.784-.086.638 0 1.139.163 1.502.488.364.319.546.794.546 1.426 0 .682-.236 1.202-.708 1.56-.466.35-1.097.525-1.895.525zm3.033-5.34h1.818v5.186H88.68v-5.185zm-3.033 4.096c.25 0 .437-.074.565-.22.127-.147.191-.342.191-.584 0-.236-.064-.421-.191-.555-.128-.134-.313-.2-.555-.2a1.06 1.06 0 00-.46.095.795.795 0 00-.315.258v.402c0 .249.064.446.191.593.128.14.32.21.575.21zm8.818-.211c.248 0 .462-.035.64-.105.186-.07.37-.185.555-.345l.948.995c-.492.562-1.225.842-2.2.842-.607 0-1.14-.114-1.599-.344a2.605 2.605 0 01-1.071-.957 2.612 2.612 0 01-.373-1.387c0-.51.124-.966.373-1.368.249-.408.59-.727 1.024-.957.44-.23.93-.344 1.473-.344a3 3 0 011.378.315c.42.205.755.507 1.004.91.249.395.373.867.373 1.415l-3.702.708c.198.415.59.622 1.177.622zm-.22-2.679c-.313 0-.568.1-.766.297-.198.191-.31.469-.335.832l2.105-.411a.943.943 0 00-.364-.517 1.038 1.038 0 00-.64-.2zm8.999 4.066c-.574 0-1.088-.114-1.541-.344a2.63 2.63 0 01-1.062-.957 2.62 2.62 0 01-.373-1.387c0-.517.125-.976.373-1.378.256-.408.61-.724 1.062-.947.453-.23.967-.344 1.541-.344.587 0 1.094.127 1.521.382.427.25.73.597.909 1.043l-1.407.718c-.236-.466-.58-.699-1.033-.699-.325 0-.596.109-.813.326-.211.216-.316.516-.316.899 0 .389.105.695.316.918.217.217.488.326.813.326.453 0 .797-.233 1.033-.699l1.407.718a2.12 2.12 0 01-.909 1.052c-.427.249-.934.373-1.521.373zm8.529-5.272v5.186h-1.732v-.545c-.191.204-.421.36-.689.469a2.174 2.174 0 01-.842.162c-.676 0-1.215-.197-1.617-.593-.395-.395-.593-.988-.593-1.78v-2.898h1.818v2.602c0 .746.29 1.12.871 1.12a.897.897 0 00.698-.297c.179-.204.268-.514.268-.928V32.39h1.818zm3.822 5.272c-.574 0-1.087-.114-1.54-.344a2.617 2.617 0 01-1.062-.957 2.61 2.61 0 01-.373-1.387c0-.517.124-.976.373-1.378a2.551 2.551 0 011.062-.947c.453-.23.966-.344 1.54-.344.587 0 1.094.127 1.522.382.427.25.73.597.908 1.043l-1.406.718c-.236-.466-.58-.699-1.033-.699-.325 0-.597.109-.813.326-.211.216-.316.516-.316.899 0 .389.105.695.316.918.216.217.488.326.813.326.453 0 .797-.233 1.033-.699l1.406.718a2.112 2.112 0 01-.908 1.052c-.428.249-.935.373-1.522.373zm9.945-5.357c.638 0 1.145.191 1.522.574.382.382.574.96.574 1.731v2.966h-1.818v-2.669c0-.364-.07-.631-.211-.804-.134-.172-.325-.258-.574-.258a.83.83 0 00-.66.287c-.166.191-.249.482-.249.87v2.574h-1.817v-2.669c0-.708-.262-1.062-.785-1.062-.281 0-.504.096-.67.287-.165.191-.248.482-.248.87v2.574h-1.818v-5.185h1.731v.545c.192-.21.418-.367.68-.469.268-.108.558-.162.87-.162.364 0 .689.067.976.2.287.134.52.339.699.613a2 2 0 01.775-.603 2.47 2.47 0 011.023-.21zm5.942 3.97c.249 0 .462-.035.641-.105.185-.07.37-.185.555-.345l.947.995c-.491.562-1.224.842-2.2.842-.606 0-1.139-.114-1.598-.344a2.607 2.607 0 01-1.072-.957 2.62 2.62 0 01-.373-1.387c0-.51.125-.966.373-1.368.249-.408.59-.727 1.024-.957a3.13 3.13 0 011.473-.344c.504 0 .964.105 1.378.315.421.205.756.507 1.005.91.248.395.373.867.373 1.415l-3.703.708c.198.415.59.622 1.177.622zm-.22-2.679c-.313 0-.568.1-.765.297-.198.191-.31.469-.335.832l2.105-.411a.943.943 0 00-.364-.517 1.039 1.039 0 00-.641-.2zm8.645 3.98V34.85l-1.33 2.267h-.775l-1.291-2.306v2.765h-1.636v-5.185h1.913l1.445 2.707 1.588-2.707h1.713l.009 5.185h-1.636zm5.331.154c-1.716 0-2.574-.737-2.574-2.21v-3.13h1.809v1.646c.134-.089.312-.162.535-.22.23-.057.492-.086.785-.086.638 0 1.138.163 1.502.488.364.319.545.794.545 1.426 0 .682-.236 1.202-.708 1.56-.465.35-1.097.525-1.894.525zm3.033-5.34h1.818v5.186h-1.818v-5.185zm-3.033 4.096c.249 0 .437-.074.564-.22.128-.147.192-.342.192-.584 0-.236-.064-.421-.192-.555-.127-.134-.312-.2-.554-.2-.173 0-.326.031-.46.095a.789.789 0 00-.315.258v.402c0 .249.063.446.191.593.128.14.319.21.574.21z" fill="#333"/><path d="M5.6 28.667l5.374-12.375h1.802v3.501l-3.813 8.874h2.843v-1.594c0-.388.647-.416.97-.381v4.887c-.887 0-1.017-.3-.97-.45v-1.387H8.443l-8.32 18.58h-.311l2.114-6.413S.054 41.181.678 39.621c.624-1.56 4.368-9.879 4.368-9.879H.678v-1.075h4.923z" fill="url(#paint0_linear)"/><path d="M19.605 28.667l-5.373-12.375H12.43v3.501l3.813 8.874H13.4v-1.594c0-.388-.647-.416-.97-.381v4.887c.887 0 1.016-.3.97-.45v-1.387h3.362l8.32 18.58h.312l-2.115-6.413s1.872-.728 1.248-2.288c-.624-1.56-4.367-9.879-4.367-9.879h4.367v-1.075h-4.922z" fill="url(#paint1_linear)"/><path fill-rule="evenodd" clip-rule="evenodd" d="M12.637 14.49a3.674 3.674 0 100-7.35 3.674 3.674 0 000 7.35zm0 2.01a5.685 5.685 0 100-11.37 5.685 5.685 0 000 11.37z" fill="#333"/><path d="M11.598 0h2.08v5.477h-2.08V0z" fill="#333"/></g><defs><linearGradient id="paint0_linear" x1="12.603" y1="16.292" x2="12.603" y2="48.322" gradientUnits="userSpaceOnUse"><stop stop-color="#FFA948"/><stop offset=".516" stop-color="#FF6E14"/></linearGradient><linearGradient id="paint1_linear" x1="12.603" y1="16.292" x2="12.603" y2="48.322" gradientUnits="userSpaceOnUse"><stop stop-color="#FFA948"/><stop offset=".516" stop-color="#FF6E14"/></linearGradient><clipPath id="clip0"><path fill="#fff" d="M0 0h150v48H0z"/></clipPath></defs></svg>