<svg width="225" height="72" fill="none" xmlns="http://www.w3.org/2000/svg"><path d="M70.538 36.29c-1.1.632-2.435 1.132-4.005 1.499-1.57.367-3.2.55-4.892.55-2.283 0-4.23-.275-5.84-.825-1.59-.55-2.793-1.315-3.608-2.294-.795-.978-1.193-2.11-1.193-3.394 0-1.12.306-2.11.917-2.966.612-.856 1.458-1.518 2.538-1.987-.836-.428-1.478-1.02-1.926-1.774a5.161 5.161 0 01-.642-2.538c0-1.182.367-2.262 1.1-3.24.755-.98 1.896-1.764 3.425-2.355s3.415-.887 5.657-.887c1.406 0 2.793.133 4.158.398 1.366.265 2.569.622 3.608 1.07l-1.65 4.525a14.408 14.408 0 00-5.872-1.253c-1.447 0-2.527.193-3.24.58-.714.367-1.07.887-1.07 1.56 0 1.223.886 1.835 2.66 1.835h6.053v4.617h-6.451c-1.04 0-1.825.173-2.355.52-.53.326-.795.815-.795 1.467 0 .693.388 1.234 1.162 1.62.775.388 1.978.582 3.608.582 1.162 0 2.355-.153 3.578-.459 1.243-.326 2.324-.764 3.24-1.315l1.835 4.465zm15.584-7.063c1.896.632 2.844 1.937 2.844 3.914 0 1.488-.58 2.66-1.743 3.516-1.162.836-2.874 1.254-5.137 1.254H72.76V21.338h8.898c2.161 0 3.832.378 5.015 1.132 1.203.754 1.804 1.814 1.804 3.18 0 .795-.204 1.498-.612 2.11-.407.611-.988 1.1-1.743 1.467zm-8.164-1.223h3.18c1.346 0 2.018-.5 2.018-1.498 0-.958-.672-1.437-2.018-1.437h-3.18v2.935zm3.609 6.146c1.406 0 2.11-.51 2.11-1.529s-.684-1.529-2.05-1.529h-3.669v3.058h3.609zm18.1-2.14H97.71v5.901H91.9V21.338h5.81v6.116h2.08l4.066-6.116h6.146l-5.565 7.95 5.932 8.623h-6.849l-3.853-5.901zm29.507-10.672v16.573h-5.81V25.955h-4.189l-.122 2.538c-.082 2.161-.296 3.945-.642 5.351-.347 1.407-.918 2.508-1.713 3.303-.795.774-1.885 1.162-3.271 1.162-.714 0-1.652-.133-2.814-.398l.245-4.74c.367.041.612.062.734.062.632 0 1.111-.204 1.437-.612.326-.407.55-.948.673-1.62.122-.693.204-1.61.244-2.752l.245-6.91h14.983zm20.966 0v16.573h-5.535v-1.743a6.122 6.122 0 01-2.201 1.498 6.956 6.956 0 01-2.691.52c-2.161 0-3.883-.632-5.168-1.895-1.263-1.264-1.895-3.16-1.895-5.688v-9.265h5.809v8.317c0 2.385.928 3.578 2.783 3.578.917 0 1.661-.316 2.232-.948.571-.652.856-1.641.856-2.966v-7.98h5.81zm21.542 0v13.546c0 3.078-.835 5.382-2.507 6.91-1.671 1.55-4.077 2.324-7.216 2.324-1.631 0-3.16-.183-4.587-.55-1.426-.367-2.639-.907-3.638-1.62l2.11-4.068c.672.55 1.518.979 2.538 1.285 1.039.326 2.058.489 3.057.489 1.529 0 2.65-.336 3.364-1.01.713-.672 1.07-1.67 1.07-2.996v-.55c-1.121 1.305-2.762 1.957-4.923 1.957-1.468 0-2.823-.326-4.067-.979a7.717 7.717 0 01-2.966-2.813c-.734-1.223-1.1-2.63-1.1-4.22 0-1.569.366-2.955 1.1-4.158a7.43 7.43 0 012.966-2.813c1.244-.672 2.599-1.009 4.067-1.009 2.365 0 4.097.765 5.198 2.294v-2.019h5.534zm-9.356 11.1c1.04 0 1.896-.316 2.568-.948.693-.632 1.04-1.447 1.04-2.446 0-1-.336-1.804-1.009-2.416-.673-.632-1.539-.948-2.599-.948-1.06 0-1.937.316-2.63.948-.672.612-1.009 1.417-1.009 2.416 0 .999.347 1.814 1.04 2.446.693.632 1.559.948 2.599.948zM60.426 46.01v9.979h-2.794v-7.741H53.84v7.74h-2.78V46.01h9.366zm6.11 2.124c.846 0 1.583.161 2.21.484a3.35 3.35 0 011.44 1.398c.342.598.513 1.302.513 2.11 0 .798-.157 1.5-.47 2.11a3.417 3.417 0 01-1.326 1.396c-.57.323-1.231.485-1.982.485-.884 0-1.577-.271-2.081-.813v3.45h-2.709v-6.6c0-.799.181-1.502.542-2.11a3.635 3.635 0 011.54-1.411c.665-.333 1.44-.5 2.323-.5zm-.128 5.83c.485 0 .874-.166 1.169-.499.304-.342.456-.789.456-1.34 0-.55-.152-.993-.456-1.325-.295-.343-.684-.514-1.169-.514s-.874.171-1.169.514c-.294.332-.442.774-.442 1.325 0 .561.143 1.008.428 1.34.294.333.689.5 1.183.5zm9.406 2.153c-.827 0-1.573-.171-2.238-.513a3.924 3.924 0 01-1.568-1.426c-.37-.608-.556-1.297-.556-2.067 0-.76.185-1.444.556-2.053a3.845 3.845 0 011.554-1.411c.665-.342 1.416-.513 2.252-.513.837 0 1.587.17 2.253.513a3.728 3.728 0 011.553 1.411c.371.599.556 1.283.556 2.053s-.185 1.459-.556 2.067a3.823 3.823 0 01-1.553 1.426c-.666.342-1.416.513-2.253.513zm0-2.153c.475 0 .865-.161 1.17-.484.303-.333.455-.79.455-1.369 0-.57-.152-1.017-.456-1.34-.304-.323-.694-.485-1.169-.485-.475 0-.865.162-1.169.485-.304.323-.456.77-.456 1.34 0 .58.152 1.036.456 1.369.304.323.694.484 1.17.484zm9.724.086c.37 0 .689-.052.955-.157.276-.105.551-.276.827-.513l1.411 1.482c-.732.837-1.825 1.255-3.279 1.255-.903 0-1.696-.171-2.38-.513a3.881 3.881 0 01-1.597-1.426c-.37-.608-.556-1.297-.556-2.067 0-.76.185-1.44.556-2.038.37-.609.88-1.084 1.525-1.426.656-.342 1.388-.513 2.196-.513.75 0 1.435.157 2.053.47a3.55 3.55 0 011.496 1.355c.371.589.556 1.292.556 2.11l-5.517 1.054c.295.618.88.927 1.754.927zm-.328-3.992c-.466 0-.846.148-1.14.442-.295.285-.461.699-.5 1.24l3.137-.613a1.405 1.405 0 00-.542-.77 1.549 1.549 0 00-.955-.299zm9.004 3.179H93.3v2.752h-2.708v-7.727H93.3v2.851h.97l1.896-2.85h2.865l-2.594 3.706 2.765 4.02H96.01l-1.796-2.752zm15.951-5.103c.951 0 1.706.285 2.267.855.57.57.855 1.43.855 2.58v4.42h-2.708V52.01c0-.541-.105-.94-.314-1.197-.199-.257-.485-.385-.855-.385-.409 0-.737.142-.984.428-.247.285-.37.717-.37 1.297v3.834h-2.709V52.01c0-1.055-.39-1.582-1.169-1.582-.418 0-.751.142-.998.428-.247.285-.37.717-.37 1.297v3.834h-2.709v-7.726h2.58v.813a2.659 2.659 0 011.012-.699 3.43 3.43 0 011.298-.242c.541 0 1.026.1 1.454.3.427.199.774.503 1.04.912.304-.39.689-.69 1.155-.899a3.68 3.68 0 011.525-.313zm4.762.128h2.694v2.865h2.78v-2.865h2.709v7.727h-2.709V53.28h-2.78v2.709h-2.694v-7.727zm13.688 7.955c-2.557 0-3.835-1.098-3.835-3.293v-4.662h2.694v2.452c.2-.133.466-.242.798-.328a4.84 4.84 0 011.169-.128c.951 0 1.697.242 2.238.727.542.475.813 1.183.813 2.124 0 1.017-.352 1.791-1.055 2.324-.694.522-1.635.784-2.822.784zm4.518-7.955h2.709v7.727h-2.709v-7.727zm-4.518 6.101c.37 0 .651-.109.841-.328.19-.218.285-.508.285-.869 0-.352-.095-.627-.285-.827-.19-.2-.466-.3-.827-.3a1.57 1.57 0 00-.684.143c-.2.095-.357.224-.471.385v.599c0 .37.095.665.285.884.19.209.475.313.856.313zm13.137-.313a2.6 2.6 0 00.955-.157c.276-.105.551-.276.827-.513l1.411 1.482c-.732.837-1.825 1.255-3.279 1.255-.902 0-1.696-.171-2.38-.513-.684-.343-1.217-.818-1.597-1.426-.37-.608-.556-1.297-.556-2.067 0-.76.186-1.44.556-2.038a3.868 3.868 0 011.526-1.426c.655-.342 1.387-.513 2.195-.513a4.47 4.47 0 012.053.47 3.547 3.547 0 011.496 1.355c.371.589.556 1.292.556 2.11l-5.516 1.054c.294.618.879.927 1.753.927zm-.328-3.992c-.466 0-.846.148-1.14.442-.295.285-.461.699-.499 1.24l3.136-.613a1.406 1.406 0 00-.542-.77 1.549 1.549 0 00-.955-.299zm13.409 6.059c-.855 0-1.62-.171-2.295-.513a3.908 3.908 0 01-1.583-1.426c-.37-.608-.555-1.297-.555-2.067 0-.77.185-1.454.555-2.053a3.81 3.81 0 011.583-1.411c.675-.342 1.44-.513 2.295-.513.874 0 1.63.19 2.267.57.636.37 1.088.889 1.354 1.554l-2.096 1.069c-.351-.694-.865-1.04-1.539-1.04-.485 0-.889.16-1.212.484-.314.323-.47.77-.47 1.34 0 .58.156 1.036.47 1.369.323.323.727.484 1.212.484.674 0 1.188-.347 1.539-1.04l2.096 1.069a3.155 3.155 0 01-1.354 1.568c-.637.37-1.393.556-2.267.556zm12.708-7.855v7.727h-2.58v-.813a2.856 2.856 0 01-1.026.698c-.39.162-.808.243-1.255.243-1.007 0-1.81-.295-2.409-.884-.589-.59-.884-1.473-.884-2.651v-4.32h2.709v3.878c0 1.111.432 1.667 1.297 1.667.428 0 .774-.147 1.04-.442.267-.304.4-.765.4-1.382v-3.72h2.708zm5.696 7.855c-.855 0-1.621-.171-2.295-.513a3.908 3.908 0 01-1.583-1.426c-.37-.608-.556-1.297-.556-2.067 0-.77.186-1.454.556-2.053a3.81 3.81 0 011.583-1.411c.674-.342 1.44-.513 2.295-.513.874 0 1.63.19 2.266.57.637.37 1.089.889 1.355 1.554l-2.096 1.069c-.351-.694-.865-1.04-1.539-1.04-.485 0-.889.16-1.212.484-.314.323-.471.77-.471 1.34 0 .58.157 1.036.471 1.369.323.323.727.484 1.212.484.674 0 1.188-.347 1.539-1.04l2.096 1.069a3.153 3.153 0 01-1.355 1.568c-.636.37-1.392.556-2.266.556zm14.818-7.983c.95 0 1.706.285 2.266.855.571.57.856 1.43.856 2.58v4.42h-2.709V52.01c0-.541-.104-.94-.313-1.197-.2-.257-.485-.385-.856-.385-.408 0-.736.142-.983.428-.247.285-.371.717-.371 1.297v3.834h-2.708V52.01c0-1.055-.39-1.582-1.169-1.582-.419 0-.751.142-.998.428-.247.285-.371.717-.371 1.297v3.834h-2.708v-7.726h2.58v.813a2.651 2.651 0 011.012-.699 3.421 3.421 0 011.297-.242c.542 0 1.027.1 1.454.3.428.199.775.503 1.041.912.304-.39.689-.69 1.155-.899a3.679 3.679 0 011.525-.313zm8.853 5.916a2.6 2.6 0 00.955-.157c.276-.105.551-.276.827-.513l1.411 1.482c-.732.837-1.824 1.255-3.279 1.255-.902 0-1.696-.171-2.38-.513-.684-.343-1.217-.818-1.597-1.426-.37-.608-.556-1.297-.556-2.067 0-.76.186-1.44.556-2.038a3.868 3.868 0 011.526-1.426c.655-.342 1.387-.513 2.195-.513a4.47 4.47 0 012.053.47 3.547 3.547 0 011.496 1.355c.371.589.556 1.292.556 2.11l-5.516 1.054c.294.618.879.927 1.753.927zm-.328-3.992c-.466 0-.846.148-1.14.442-.295.285-.461.699-.499 1.24l3.136-.613a1.406 1.406 0 00-.542-.77 1.549 1.549 0 00-.955-.299zm12.881 5.931v-4.063l-1.981 3.378h-1.155l-1.924-3.435v4.12h-2.438v-7.727h2.851l2.153 4.034 2.366-4.034h2.552l.014 7.727h-2.438zm7.943.228c-2.556 0-3.834-1.098-3.834-3.293v-4.662h2.694v2.452c.2-.133.466-.242.798-.328a4.833 4.833 0 011.169-.128c.951 0 1.697.242 2.238.727.542.475.813 1.183.813 2.124 0 1.017-.352 1.791-1.055 2.324-.694.522-1.635.784-2.823.784zm4.519-7.955h2.709v7.727h-2.709v-7.727zm-4.519 6.101c.371 0 .651-.109.841-.328.191-.218.286-.508.286-.869 0-.352-.095-.627-.286-.827-.19-.2-.465-.3-.826-.3-.257 0-.485.048-.685.143a1.188 1.188 0 00-.47.385v.599c0 .37.095.665.285.884.19.209.475.313.855.313z" fill="#333"/><path d="M9.345 42.715l8.006-18.44h2.685v5.217l-5.681 13.223h4.235v-2.376c0-.579.964-.62 1.446-.569v7.283c-1.322 0-1.515-.447-1.446-.671v-2.066h-5.01L1.184 72H.72l3.151-9.555s-2.79-1.085-1.86-3.41c.93-2.323 6.508-14.72 6.508-14.72H2.011v-1.6h7.334z" fill="url(#paint0_linear)"/><path d="M30.211 42.715l-8.005-18.44H19.52v5.217l5.68 13.223h-4.235v-2.376c0-.579-.964-.62-1.446-.569v7.283c1.322 0 1.515-.447 1.446-.671v-2.066h5.01L38.372 72h.465l-3.15-9.555s2.788-1.085 1.859-3.41c-.93-2.323-6.508-14.72-6.508-14.72h6.508v-1.6H30.21z" fill="url(#paint1_linear)"/><path fill-rule="evenodd" clip-rule="evenodd" d="M19.83 21.59a5.475 5.475 0 100-10.95 5.475 5.475 0 000 10.95zm0 2.995a8.47 8.47 0 100-16.94 8.47 8.47 0 000 16.94z" fill="#333"/><path d="M18.28 0h3.1v8.16h-3.1V0z" fill="#333"/><defs><linearGradient id="paint0_linear" x1="19.778" y1="24.276" x2="19.778" y2="72" gradientUnits="userSpaceOnUse"><stop stop-color="#FFA948"/><stop offset=".516" stop-color="#FF6E14"/></linearGradient><linearGradient id="paint1_linear" x1="19.778" y1="24.276" x2="19.778" y2="72" gradientUnits="userSpaceOnUse"><stop stop-color="#FFA948"/><stop offset=".516" stop-color="#FF6E14"/></linearGradient></defs></svg>