<svg width="64" height="49" fill="none" xmlns="http://www.w3.org/2000/svg"><circle cx="21.5" cy="27.5" r="21" fill="#F90" stroke="#F90"/><path fill-rule="evenodd" clip-rule="evenodd" d="M42.41 15.7a5.419 5.419 0 100 10.838 5.419 5.419 0 000-10.838zm-6.097 5.419a6.096 6.096 0 1112.193 0 6.096 6.096 0 01-12.193 0z" fill="#000"/><path fill-rule="evenodd" clip-rule="evenodd" d="M42.5.679a3.508 3.508 0 00-3.508 3.508v.328a3.514 3.514 0 01-2.13 3.216.34.34 0 01-.133.027h-.084a3.513 3.513 0 01-3.808-.732l-.003-.002-.116-.116a3.509 3.509 0 00-4.963 0 3.508 3.508 0 000 4.964l.118.118a3.514 3.514 0 01.707 3.866 3.513 3.513 0 01-3.212 2.29h-.181a3.508 3.508 0 000 7.016h.328a3.514 3.514 0 013.215 2.128 3.514 3.514 0 01-.704 3.873l-.002.003-.116.116a3.509 3.509 0 000 4.963 3.508 3.508 0 004.964 0l.118-.118a3.514 3.514 0 013.866-.707 3.514 3.514 0 012.29 3.212v.181a3.508 3.508 0 007.016 0v-.328a3.514 3.514 0 012.127-3.215 3.514 3.514 0 013.874.703l.003.003.116.116a3.509 3.509 0 004.963 0 3.508 3.508 0 000-4.964l-.118-.118a3.514 3.514 0 01-.703-3.875 3.514 3.514 0 013.215-2.127h.174a3.508 3.508 0 000-7.016h-.328a3.514 3.514 0 01-3.216-2.13.34.34 0 01-.027-.133v-.084a3.513 3.513 0 01.732-3.808l.002-.003.116-.115a3.509 3.509 0 000-4.964 3.507 3.507 0 00-4.964 0l-.118.118a3.514 3.514 0 01-3.874.703 3.514 3.514 0 01-2.128-3.215v-.174A3.508 3.508 0 0042.5.679zm-2.96.547a4.187 4.187 0 017.147 2.96v.173a2.835 2.835 0 001.718 2.594l.003.001a2.835 2.835 0 003.125-.566h.002l.112-.113a4.188 4.188 0 115.925 5.924l-.113.112-.001.002a2.834 2.834 0 00-.566 3.125.34.34 0 01.029.137v.082a2.834 2.834 0 002.566 1.656h.326a4.187 4.187 0 010 8.374h-.172a2.835 2.835 0 00-2.594 1.718l-.001.003a2.835 2.835 0 00.567 3.127l.112.112a4.188 4.188 0 11-5.924 5.925l-.112-.113-.002-.002a2.834 2.834 0 00-3.125-.565l-.003.001a2.835 2.835 0 00-1.718 2.594v.326a4.187 4.187 0 01-8.374 0v-.169a2.835 2.835 0 00-1.855-2.59l-.011-.004a2.835 2.835 0 00-3.136.563l-.112.112a4.186 4.186 0 01-5.925 0 4.186 4.186 0 010-5.924l.113-.112.001-.002a2.834 2.834 0 00.566-3.125l-.001-.003a2.835 2.835 0 00-2.594-1.718h-.326a4.187 4.187 0 010-8.374h.169a2.835 2.835 0 002.598-1.875 2.835 2.835 0 00-.566-3.126l-.113-.113a4.186 4.186 0 010-5.925 4.186 4.186 0 015.924 0l.114.114a2.834 2.834 0 003.125.566.34.34 0 01.137-.029h.082a2.834 2.834 0 001.656-2.566v-.326c0-1.11.441-2.176 1.226-2.96z" fill="#000"/></svg>