<svg width="190" height="165" fill="none" xmlns="http://www.w3.org/2000/svg"><circle cx="64" cy="101" r="63.468" fill="#F90" stroke="#F90" stroke-width="1.065"/><path fill-rule="evenodd" clip-rule="evenodd" d="M121.677 50.032c-9.406 0-17.032 7.626-17.032 17.032 0 9.407 7.626 17.033 17.032 17.033 9.407 0 17.033-7.626 17.033-17.032 0-9.407-7.626-17.033-17.033-17.033zm-19.161 17.032c0-10.582 8.579-19.16 19.161-19.16 10.583 0 19.162 8.578 19.162 19.16 0 10.583-8.579 19.162-19.162 19.162-10.582 0-19.161-8.579-19.161-19.162z" fill="#000"/><path fill-rule="evenodd" clip-rule="evenodd" d="M122.21 2.135a11.03 11.03 0 00-11.029 11.029v1.032a11.047 11.047 0 01-6.695 10.11 1.07 1.07 0 01-.421.086h-.264a11.049 11.049 0 01-11.974-2.3l-.008-.009-.363-.363a11.03 11.03 0 00-15.606 0h-.001a11.03 11.03 0 000 15.607l.372.371a11.047 11.047 0 012.222 12.154 11.046 11.046 0 01-10.097 7.2h-.569a11.028 11.028 0 100 22.058h1.032a11.046 11.046 0 0110.107 6.69 11.046 11.046 0 01-2.212 12.179l-.008.008-.363.363a11.032 11.032 0 000 15.607 11.02 11.02 0 007.804 3.235 11.03 11.03 0 007.803-3.235l.371-.371a11.045 11.045 0 0112.154-2.223 11.045 11.045 0 017.199 10.098l.001.025v.544a11.032 11.032 0 0011.029 11.029 11.028 11.028 0 0011.028-11.029v-1.032a11.047 11.047 0 016.69-10.107 11.046 11.046 0 0112.18 2.211l.008.008.363.363a11.036 11.036 0 007.804 3.235 11.028 11.028 0 007.803-3.234v-.001a11.028 11.028 0 000-15.606l-.371-.372a11.044 11.044 0 01-2.212-12.18 11.045 11.045 0 0110.107-6.69h.549a11.031 11.031 0 0011.029-11.028 11.03 11.03 0 00-11.029-11.03h-1.033a11.045 11.045 0 01-10.109-6.694 1.066 1.066 0 01-.086-.42v-.265a11.048 11.048 0 012.3-11.973l.008-.009.363-.363a11.022 11.022 0 003.235-7.803 11.03 11.03 0 00-3.235-7.803 11.037 11.037 0 00-7.803-3.235 11.028 11.028 0 00-7.803 3.234l-.372.372a11.047 11.047 0 01-12.18 2.211 11.046 11.046 0 01-6.689-10.107v-.548a11.027 11.027 0 00-11.029-11.03zm-9.308 1.72a13.16 13.16 0 0118.616 0 13.166 13.166 0 013.855 9.309v.542a8.92 8.92 0 005.402 8.154l.01.004a8.91 8.91 0 009.826-1.778l.004-.004.354-.355c.001 0 0 0 0 0a13.172 13.172 0 019.314-3.86 13.163 13.163 0 019.312 3.86 13.153 13.153 0 013.861 9.313 13.154 13.154 0 01-3.861 9.313l-.354.354-.004.004a8.91 8.91 0 00-1.779 9.827c.06.135.091.282.091.43v.259a8.913 8.913 0 008.068 5.206h1.026a13.165 13.165 0 010 26.327h-.542a8.907 8.907 0 00-8.154 5.402l-.005.01a8.91 8.91 0 001.778 9.826l.005.004.354.355a13.156 13.156 0 013.861 9.313 13.154 13.154 0 01-3.861 9.313 13.16 13.16 0 01-14.353 2.856 13.16 13.16 0 01-4.272-2.856c0-.001 0 0 0 0l-.355-.355-.004-.004a8.91 8.91 0 00-9.826-1.778l-.011.004a8.913 8.913 0 00-5.401 8.154v1.026a13.167 13.167 0 01-13.163 13.164 13.164 13.164 0 01-13.164-13.164v-.532a8.914 8.914 0 00-5.833-8.143l-.034-.013a8.908 8.908 0 00-9.859 1.77l-.354.354a13.154 13.154 0 01-9.313 3.861 13.154 13.154 0 01-9.314-3.861 13.158 13.158 0 01-2.856-14.353 13.162 13.162 0 012.857-4.272l.355-.355.004-.004a8.912 8.912 0 001.778-9.826l-.005-.01a8.913 8.913 0 00-8.154-5.402h-1.025a13.164 13.164 0 010-26.327h.531a8.912 8.912 0 008.17-5.896 8.912 8.912 0 00-1.78-9.826l-.357-.358a13.16 13.16 0 01-2.858-14.354 13.162 13.162 0 012.858-4.273 13.162 13.162 0 0118.625.001l.358.359a8.913 8.913 0 009.826 1.778c.136-.06.283-.09.431-.09h.259a8.912 8.912 0 005.206-8.068v-1.026a13.16 13.16 0 013.856-9.308z" fill="#000"/></svg>