<svg width="60" height="60" fill="none" xmlns="http://www.w3.org/2000/svg"><path d="M30 0C13.432 0 0 13.431 0 30c0 16.569 13.432 30 30 30 16.568 0 30-13.431 30-30C60 13.431 46.568 0 30 0zm15.218 33.245c1.398 1.365 2.877 2.65 4.132 4.158.556.666 1.08 1.355 1.48 2.13.57 1.106.055 2.319-.935 2.384l-6.146-.001c-1.587.131-2.85-.509-3.915-1.594-.85-.865-1.639-1.789-2.458-2.683-.334-.367-.687-.713-1.106-.985-.838-.545-1.566-.378-2.046.497-.49.891-.601 1.878-.648 2.87-.067 1.449-.504 1.827-1.958 1.895-3.107.146-6.055-.325-8.795-1.892-2.418-1.382-4.288-3.332-5.919-5.54-3.174-4.304-5.606-9.027-7.79-13.887-.492-1.094-.132-1.68 1.075-1.703 2.006-.038 4.012-.033 6.018-.002.816.013 1.357.48 1.67 1.25 1.084 2.668 2.413 5.205 4.078 7.559.444.626.897 1.251 1.542 1.694.712.488 1.255.327 1.59-.468.215-.505.308-1.045.355-1.587.16-1.854.178-3.708-.098-5.555-.172-1.155-.822-1.902-1.974-2.12-.587-.111-.5-.329-.215-.664.495-.58.96-.938 1.887-.938l6.944-.001c1.094.215 1.34.706 1.488 1.808l.006 7.717c-.013.427.215 1.691.98 1.97.614.203 1.02-.29 1.386-.678 1.666-1.767 2.852-3.853 3.915-6.012.469-.951.873-1.937 1.266-2.924.292-.73.746-1.089 1.57-1.076l6.687.008c.197 0 .397.002.592.035 1.127.193 1.436.678 1.088 1.777-.55 1.727-1.615 3.166-2.658 4.609-1.117 1.544-2.308 3.034-3.414 4.585-1.017 1.418-.936 2.132.326 3.364z" fill="#7C7C7C"/></svg>