<svg width="110" height="35" viewBox="0 0 110 35" fill="none" xmlns="http://www.w3.org/2000/svg">
<g clip-path="url(#clip0)">
<path d="M34.0304 17.7595C33.4917 18.0687 32.8383 18.3131 32.0702 18.4927C31.3021 18.6723 30.504 18.762 29.676 18.762C28.5588 18.762 27.6061 18.6274 26.818 18.358C26.0399 18.0887 25.4514 17.7146 25.0523 17.2358C24.6633 16.7569 24.4688 16.2033 24.4688 15.5748C24.4688 15.0262 24.6184 14.5424 24.9177 14.1234C25.2169 13.7044 25.6309 13.3802 26.1596 13.1508C25.7506 12.9413 25.4364 12.652 25.2169 12.2829C25.0074 11.9038 24.9027 11.4898 24.9027 11.0409C24.9027 10.4623 25.0823 9.93361 25.4414 9.45478C25.8105 8.97595 26.3691 8.59189 27.1173 8.30259C27.8655 8.0133 28.7882 7.86865 29.8855 7.86865C30.5738 7.86865 31.2522 7.93349 31.9206 8.06318C32.5889 8.19286 33.1775 8.36743 33.6862 8.5869L32.8782 10.8015C31.9505 10.3925 30.9928 10.188 30.0052 10.188C29.297 10.188 28.7683 10.2828 28.4191 10.4723C28.07 10.6519 27.8954 10.9062 27.8954 11.2354C27.8954 11.834 28.3293 12.1332 29.1972 12.1332H32.16V14.3927H29.0027C28.4939 14.3927 28.1099 14.4775 27.8505 14.6471C27.5911 14.8067 27.4614 15.0461 27.4614 15.3653C27.4614 15.7045 27.651 15.9689 28.0301 16.1584C28.4091 16.3479 28.9977 16.4427 29.7957 16.4427C30.3644 16.4427 30.9479 16.3679 31.5465 16.2183C32.155 16.0587 32.6837 15.8442 33.1326 15.5748L34.0304 17.7595Z" fill="#333333"/>
<path d="M41.6567 14.3029C42.5845 14.6122 43.0483 15.2506 43.0483 16.2183C43.0483 16.9465 42.764 17.5201 42.1954 17.9391C41.6268 18.3481 40.7889 18.5526 39.6816 18.5526H35.1177V10.4424H39.4721C40.5295 10.4424 41.3475 10.6269 41.9261 10.996C42.5146 11.3651 42.8089 11.8838 42.8089 12.5522C42.8089 12.9413 42.7092 13.2854 42.5097 13.5847C42.3101 13.884 42.0258 14.1234 41.6567 14.3029ZM37.6615 13.7044H39.2177C39.8761 13.7044 40.2053 13.46 40.2053 12.9712C40.2053 12.5023 39.8761 12.2679 39.2177 12.2679H37.6615V13.7044ZM39.4272 16.7121C40.1155 16.7121 40.4597 16.4627 40.4597 15.9639C40.4597 15.4651 40.1255 15.2157 39.4571 15.2157H37.6615V16.7121H39.4272Z" fill="#333333"/>
<path d="M48.2852 15.6646H47.3275V18.5526H44.4845V10.4424H47.3275V13.4351H48.3451L50.3352 10.4424H53.3428L50.6195 14.3329L53.5224 18.5526H50.1706L48.2852 15.6646Z" fill="#333333"/>
<path d="M62.7248 10.4424V18.5526H59.8818V12.7018H57.8318L57.7719 13.9438C57.732 15.0012 57.6273 15.8741 57.4577 16.5624C57.2881 17.2507 57.0088 17.7894 56.6197 18.1785C56.2307 18.5575 55.697 18.7471 55.0186 18.7471C54.6695 18.7471 54.2106 18.6822 53.642 18.5526L53.7617 16.2332C53.9413 16.2532 54.061 16.2632 54.1208 16.2632C54.4301 16.2632 54.6645 16.1634 54.8241 15.9639C54.9837 15.7644 55.0935 15.5 55.1533 15.1708C55.2132 14.8316 55.2531 14.3827 55.273 13.8241L55.3927 10.4424H62.7248Z" fill="#333333"/>
<path d="M72.9851 10.4424V18.5526H70.2767V17.6996C69.9774 18.0189 69.6183 18.2633 69.1993 18.4329C68.7903 18.6024 68.3514 18.6872 67.8825 18.6872C66.8251 18.6872 65.9822 18.378 65.3537 17.7595C64.7352 17.141 64.426 16.2133 64.426 14.9763V10.4424H67.269V14.5124C67.269 15.6796 67.7229 16.2632 68.6307 16.2632C69.0796 16.2632 69.4437 16.1085 69.723 15.7993C70.0024 15.4801 70.142 14.9962 70.142 14.3478V10.4424H72.9851Z" fill="#333333"/>
<path d="M83.5275 10.4424V17.0712C83.5275 18.5775 83.1185 19.7047 82.3005 20.4529C81.4825 21.2111 80.3054 21.5901 78.7692 21.5901C77.9711 21.5901 77.2229 21.5004 76.5246 21.3208C75.8263 21.1412 75.2328 20.8769 74.744 20.5277L75.7765 18.5376C76.1057 18.8069 76.5196 19.0164 77.0184 19.1661C77.5272 19.3257 78.026 19.4055 78.5148 19.4055C79.2629 19.4055 79.8116 19.2409 80.1608 18.9117C80.5099 18.5825 80.6845 18.0937 80.6845 17.4453V17.1759C80.1358 17.8144 79.3328 18.1336 78.2754 18.1336C77.5571 18.1336 76.8937 17.974 76.2852 17.6548C75.6767 17.3256 75.1929 16.8667 74.8338 16.2781C74.4746 15.6796 74.2951 14.9913 74.2951 14.2132C74.2951 13.445 74.4746 12.7667 74.8338 12.1781C75.1929 11.5796 75.6767 11.1207 76.2852 10.8015C76.8937 10.4723 77.5571 10.3077 78.2754 10.3077C79.4325 10.3077 80.2805 10.6818 80.8191 11.43V10.4424H83.5275ZM78.9487 15.8741C79.4575 15.8741 79.8764 15.7195 80.2056 15.4102C80.5448 15.101 80.7144 14.702 80.7144 14.2132C80.7144 13.7244 80.5498 13.3303 80.2206 13.031C79.8914 12.7218 79.4674 12.5672 78.9487 12.5672C78.43 12.5672 78.001 12.7218 77.6619 13.031C77.3327 13.3303 77.1681 13.7244 77.1681 14.2132C77.1681 14.702 77.3377 15.101 77.6768 15.4102C78.016 15.7195 78.44 15.8741 78.9487 15.8741Z" fill="#333333"/>
<path d="M29.0815 22.5159V27.3992H27.7142V23.6111H25.8585V27.3992H24.4982V22.5159H29.0815Z" fill="#333333"/>
<path d="M32.0718 23.5553C32.4857 23.5553 32.8462 23.6344 33.1531 23.7925C33.4601 23.9506 33.695 24.1785 33.8577 24.4762C34.0252 24.7692 34.1089 25.1133 34.1089 25.5086C34.1089 25.8993 34.0321 26.2435 33.8787 26.5411C33.7252 26.8341 33.5089 27.062 33.2299 27.2248C32.9508 27.3829 32.6276 27.462 32.2602 27.462C31.8277 27.462 31.4881 27.3294 31.2417 27.0643V28.7526H29.9162V25.5226C29.9162 25.1319 30.0045 24.7878 30.1813 24.4901C30.358 24.1925 30.6091 23.9623 30.9347 23.7995C31.2603 23.6367 31.6393 23.5553 32.0718 23.5553ZM32.009 26.4086C32.2462 26.4086 32.4369 26.3272 32.5811 26.1644C32.7299 25.997 32.8043 25.7784 32.8043 25.5086C32.8043 25.2389 32.7299 25.0226 32.5811 24.8599C32.4369 24.6924 32.2462 24.6087 32.009 24.6087C31.7718 24.6087 31.5812 24.6924 31.437 24.8599C31.2928 25.0226 31.2207 25.2389 31.2207 25.5086C31.2207 25.783 31.2905 26.0016 31.43 26.1644C31.5742 26.3272 31.7672 26.4086 32.009 26.4086Z" fill="#333333"/>
<path d="M36.6121 27.462C36.2075 27.462 35.8424 27.3783 35.5169 27.2108C35.1913 27.0434 34.9355 26.8109 34.7495 26.5132C34.5681 26.2156 34.4774 25.8784 34.4774 25.5017C34.4774 25.1296 34.5681 24.7948 34.7495 24.4971C34.9355 24.1994 35.189 23.9692 35.5099 23.8065C35.8355 23.639 36.2029 23.5553 36.6121 23.5553C37.0214 23.5553 37.3888 23.639 37.7144 23.8065C38.0399 23.9692 38.2934 24.1994 38.4748 24.4971C38.6562 24.7901 38.7469 25.125 38.7469 25.5017C38.7469 25.8784 38.6562 26.2156 38.4748 26.5132C38.2934 26.8109 38.0399 27.0434 37.7144 27.2108C37.3888 27.3783 37.0214 27.462 36.6121 27.462ZM36.6121 26.4086C36.8447 26.4086 37.0354 26.3295 37.1842 26.1714C37.333 26.0086 37.4074 25.7854 37.4074 25.5017C37.4074 25.2226 37.333 25.004 37.1842 24.8459C37.0354 24.6878 36.8447 24.6087 36.6121 24.6087C36.3796 24.6087 36.1889 24.6878 36.0401 24.8459C35.8913 25.004 35.8168 25.2226 35.8168 25.5017C35.8168 25.7854 35.8913 26.0086 36.0401 26.1714C36.1889 26.3295 36.3796 26.4086 36.6121 26.4086Z" fill="#333333"/>
<path d="M41.3707 26.4504C41.5521 26.4504 41.7079 26.4249 41.8381 26.3737C41.973 26.3225 42.1078 26.2388 42.2427 26.1226L42.9333 26.8481C42.5752 27.2574 42.0404 27.462 41.3288 27.462C40.887 27.462 40.4986 27.3783 40.1638 27.2108C39.8289 27.0434 39.5685 26.8109 39.3825 26.5132C39.2011 26.2156 39.1104 25.8784 39.1104 25.5017C39.1104 25.1296 39.2011 24.7971 39.3825 24.5041C39.5638 24.2064 39.8127 23.9739 40.1289 23.8065C40.4498 23.639 40.8079 23.5553 41.2032 23.5553C41.5707 23.5553 41.9055 23.632 42.2078 23.7855C42.5148 23.9344 42.7589 24.1553 42.9403 24.4483C43.1217 24.7366 43.2124 25.0808 43.2124 25.4807L40.5126 25.997C40.6568 26.2993 40.9428 26.4504 41.3707 26.4504ZM41.2102 24.4971C40.9823 24.4971 40.7963 24.5692 40.6521 24.7134C40.5079 24.8529 40.4266 25.0552 40.408 25.3203L41.9427 25.0203C41.8962 24.8622 41.8078 24.7366 41.6776 24.6436C41.5474 24.5459 41.3916 24.4971 41.2102 24.4971Z" fill="#333333"/>
<path d="M45.6164 26.0528H45.1699V27.3992H43.8444V23.6181H45.1699V25.0133H45.6443L46.5721 23.6181H47.9744L46.7047 25.4319L48.0581 27.3992H46.4954L45.6164 26.0528Z" fill="#333333"/>
<path d="M53.4227 23.5553C53.8878 23.5553 54.2575 23.6948 54.5319 23.9739C54.811 24.2529 54.9505 24.6738 54.9505 25.2366V27.3992H53.625V25.4528C53.625 25.1877 53.5739 24.9924 53.4716 24.8668C53.3739 24.7413 53.2344 24.6785 53.053 24.6785C52.853 24.6785 52.6926 24.7482 52.5716 24.8878C52.4507 25.0273 52.3902 25.2389 52.3902 25.5226V27.3992H51.0648V25.4528C51.0648 24.9366 50.8741 24.6785 50.4927 24.6785C50.2881 24.6785 50.1253 24.7482 50.0044 24.8878C49.8835 25.0273 49.823 25.2389 49.823 25.5226V27.3992H48.4975V23.6181H49.7602V24.0157C49.8997 23.8623 50.0648 23.7483 50.2555 23.6739C50.4509 23.5948 50.6625 23.5553 50.8904 23.5553C51.1555 23.5553 51.3926 23.6041 51.6019 23.7018C51.8112 23.7995 51.981 23.9483 52.1112 24.1483C52.26 23.9576 52.4484 23.8111 52.6763 23.7088C52.9042 23.6065 53.153 23.5553 53.4227 23.5553Z" fill="#333333"/>
<path d="M55.7531 23.6181H57.0716V25.0203H58.4319V23.6181H59.7574V27.3992H58.4319V26.0737H57.0716V27.3992H55.7531V23.6181Z" fill="#333333"/>
<path d="M62.4512 27.5108C61.2002 27.5108 60.5746 26.9737 60.5746 25.8993V23.6181H61.8932V24.818C61.9908 24.7529 62.121 24.6994 62.2838 24.6576C62.4512 24.6157 62.6419 24.5948 62.8559 24.5948C63.3209 24.5948 63.686 24.7134 63.9511 24.9506C64.2162 25.1831 64.3488 25.5296 64.3488 25.99C64.3488 26.4876 64.1767 26.8667 63.8325 27.1271C63.493 27.3829 63.0326 27.5108 62.4512 27.5108ZM64.6627 23.6181H65.9882V27.3992H64.6627V23.6181ZM62.4512 26.6039C62.6326 26.6039 62.7698 26.5504 62.8628 26.4435C62.9559 26.3365 63.0024 26.1946 63.0024 26.0179C63.0024 25.8458 62.9559 25.711 62.8628 25.6133C62.7698 25.5156 62.635 25.4668 62.4582 25.4668C62.3327 25.4668 62.221 25.49 62.1234 25.5366C62.0257 25.5831 61.949 25.6458 61.8932 25.7249V26.0179C61.8932 26.1993 61.9397 26.3435 62.0327 26.4504C62.1257 26.5528 62.2652 26.6039 62.4512 26.6039Z" fill="#333333"/>
<path d="M68.8804 26.4504C69.0617 26.4504 69.2175 26.4249 69.3478 26.3737C69.4826 26.3225 69.6175 26.2388 69.7524 26.1226L70.443 26.8481C70.0849 27.2574 69.5501 27.462 68.8385 27.462C68.3967 27.462 68.0083 27.3783 67.6735 27.2108C67.3386 27.0434 67.0782 26.8109 66.8921 26.5132C66.7108 26.2156 66.6201 25.8784 66.6201 25.5017C66.6201 25.1296 66.7108 24.7971 66.8921 24.5041C67.0735 24.2064 67.3223 23.9739 67.6386 23.8065C67.9595 23.639 68.3176 23.5553 68.7129 23.5553C69.0804 23.5553 69.4152 23.632 69.7175 23.7855C70.0245 23.9344 70.2686 24.1553 70.45 24.4483C70.6314 24.7366 70.7221 25.0808 70.7221 25.4807L68.0223 25.997C68.1665 26.2993 68.4525 26.4504 68.8804 26.4504ZM68.7199 24.4971C68.492 24.4971 68.306 24.5692 68.1618 24.7134C68.0176 24.8529 67.9363 25.0552 67.9176 25.3203L69.4524 25.0203C69.4059 24.8622 69.3175 24.7366 69.1873 24.6436C69.0571 24.5459 68.9013 24.4971 68.7199 24.4971Z" fill="#333333"/>
<path d="M75.2819 27.462C74.8633 27.462 74.4889 27.3783 74.1587 27.2108C73.8285 27.0434 73.5704 26.8109 73.3843 26.5132C73.2029 26.2156 73.1123 25.8784 73.1123 25.5017C73.1123 25.125 73.2029 24.7901 73.3843 24.4971C73.5704 24.1994 73.8285 23.9692 74.1587 23.8065C74.4889 23.639 74.8633 23.5553 75.2819 23.5553C75.7097 23.5553 76.0795 23.6483 76.3911 23.8344C76.7027 24.0157 76.9236 24.2692 77.0538 24.5948L76.0283 25.118C75.8562 24.7785 75.6051 24.6087 75.2749 24.6087C75.0377 24.6087 74.84 24.6878 74.6819 24.8459C74.5284 25.004 74.4517 25.2226 74.4517 25.5017C74.4517 25.7854 74.5284 26.0086 74.6819 26.1714C74.84 26.3295 75.0377 26.4086 75.2749 26.4086C75.6051 26.4086 75.8562 26.2388 76.0283 25.8993L77.0538 26.4225C76.9236 26.7481 76.7027 27.0039 76.3911 27.1899C76.0795 27.3713 75.7097 27.462 75.2819 27.462Z" fill="#333333"/>
<path d="M81.5009 23.6181V27.3992H80.2382V27.0016C80.0987 27.1504 79.9313 27.2643 79.7359 27.3434C79.5453 27.4225 79.3406 27.462 79.122 27.462C78.6291 27.462 78.2361 27.3178 77.9431 27.0295C77.6547 26.7411 77.5105 26.3086 77.5105 25.7319V23.6181H78.836V25.5156C78.836 26.0598 79.0476 26.3318 79.4708 26.3318C79.6801 26.3318 79.8499 26.2598 79.9801 26.1156C80.1103 25.9668 80.1754 25.7412 80.1754 25.4389V23.6181H81.5009Z" fill="#333333"/>
<path d="M84.2882 27.462C83.8697 27.462 83.4953 27.3783 83.1651 27.2108C82.8349 27.0434 82.5767 26.8109 82.3907 26.5132C82.2093 26.2156 82.1186 25.8784 82.1186 25.5017C82.1186 25.125 82.2093 24.7901 82.3907 24.4971C82.5767 24.1994 82.8349 23.9692 83.1651 23.8065C83.4953 23.639 83.8697 23.5553 84.2882 23.5553C84.7161 23.5553 85.0859 23.6483 85.3975 23.8344C85.7091 24.0157 85.93 24.2692 86.0602 24.5948L85.0347 25.118C84.8626 24.7785 84.6115 24.6087 84.2813 24.6087C84.0441 24.6087 83.8464 24.6878 83.6883 24.8459C83.5348 25.004 83.4581 25.2226 83.4581 25.5017C83.4581 25.7854 83.5348 26.0086 83.6883 26.1714C83.8464 26.3295 84.0441 26.4086 84.2813 26.4086C84.6115 26.4086 84.8626 26.2388 85.0347 25.8993L86.0602 26.4225C85.93 26.7481 85.7091 27.0039 85.3975 27.1899C85.0859 27.3713 84.7161 27.462 84.2882 27.462Z" fill="#333333"/>
<path d="M91.5398 23.5553C92.0049 23.5553 92.3746 23.6948 92.649 23.9739C92.9281 24.2529 93.0676 24.6738 93.0676 25.2366V27.3992H91.7421V25.4528C91.7421 25.1877 91.6909 24.9924 91.5886 24.8668C91.491 24.7413 91.3514 24.6785 91.1701 24.6785C90.9701 24.6785 90.8096 24.7482 90.6887 24.8878C90.5678 25.0273 90.5073 25.2389 90.5073 25.5226V27.3992H89.1818V25.4528C89.1818 24.9366 88.9912 24.6785 88.6098 24.6785C88.4052 24.6785 88.2424 24.7482 88.1215 24.8878C88.0005 25.0273 87.9401 25.2389 87.9401 25.5226V27.3992H86.6146V23.6181H87.8773V24.0157C88.0168 23.8623 88.1819 23.7483 88.3726 23.6739C88.5679 23.5948 88.7795 23.5553 89.0074 23.5553C89.2725 23.5553 89.5097 23.6041 89.719 23.7018C89.9283 23.7995 90.098 23.9483 90.2283 24.1483C90.3771 23.9576 90.5655 23.8111 90.7933 23.7088C91.0212 23.6065 91.2701 23.5553 91.5398 23.5553Z" fill="#333333"/>
<path d="M95.8723 26.4504C96.0537 26.4504 96.2095 26.4249 96.3397 26.3737C96.4746 26.3225 96.6095 26.2388 96.7443 26.1226L97.435 26.8481C97.0769 27.2574 96.542 27.462 95.8304 27.462C95.3886 27.462 95.0003 27.3783 94.6654 27.2108C94.3306 27.0434 94.0701 26.8109 93.8841 26.5132C93.7027 26.2156 93.612 25.8784 93.612 25.5017C93.612 25.1296 93.7027 24.7971 93.8841 24.5041C94.0655 24.2064 94.3143 23.9739 94.6305 23.8065C94.9514 23.639 95.3095 23.5553 95.7049 23.5553C96.0723 23.5553 96.4071 23.632 96.7094 23.7855C97.0164 23.9344 97.2606 24.1553 97.4419 24.4483C97.6233 24.7366 97.714 25.0808 97.714 25.4807L95.0142 25.997C95.1584 26.2993 95.4444 26.4504 95.8723 26.4504ZM95.7118 24.4971C95.4839 24.4971 95.2979 24.5692 95.1537 24.7134C95.0096 24.8529 94.9282 25.0552 94.9096 25.3203L96.4443 25.0203C96.3978 24.8622 96.3095 24.7366 96.1792 24.6436C96.049 24.5459 95.8932 24.4971 95.7118 24.4971Z" fill="#333333"/>
<path d="M102.016 27.3992V25.411L101.046 27.0643H100.481L99.539 25.3831V27.3992H98.3461V23.6181H99.7413L100.795 25.5924L101.953 23.6181H103.202L103.208 27.3992H102.016Z" fill="#333333"/>
<path d="M105.903 27.5108C104.652 27.5108 104.026 26.9737 104.026 25.8993V23.6181H105.345V24.818C105.442 24.7529 105.572 24.6994 105.735 24.6576C105.903 24.6157 106.093 24.5948 106.307 24.5948C106.772 24.5948 107.137 24.7134 107.403 24.9506C107.668 25.1831 107.8 25.5296 107.8 25.99C107.8 26.4876 107.628 26.8667 107.284 27.1271C106.944 27.3829 106.484 27.5108 105.903 27.5108ZM108.114 23.6181H109.44V27.3992H108.114V23.6181ZM105.903 26.6039C106.084 26.6039 106.221 26.5504 106.314 26.4435C106.407 26.3365 106.454 26.1946 106.454 26.0179C106.454 25.8458 106.407 25.711 106.314 25.6133C106.221 25.5156 106.086 25.4668 105.91 25.4668C105.784 25.4668 105.672 25.49 105.575 25.5366C105.477 25.5831 105.4 25.6458 105.345 25.7249V26.0179C105.345 26.1993 105.391 26.3435 105.484 26.4504C105.577 26.5528 105.717 26.6039 105.903 26.6039Z" fill="#333333"/>
<path d="M4.08378 20.9032L8.00158 11.8796H9.31594V14.4325L6.53556 20.9032H8.60821V19.7405C8.60821 19.4574 9.08003 19.4372 9.31594 19.4625V23.0264C8.66887 23.0264 8.5745 22.8073 8.60821 22.6978V21.6868H6.15642L0.0901559 35.2348H-0.137329L1.40451 30.5587C1.40451 30.5587 0.0396037 30.0279 0.494573 28.8905C0.949543 27.753 3.67936 21.6868 3.67936 21.6868H0.494573V20.9032H4.08378Z" fill="url(#paint0_linear)"/>
<path d="M14.2953 20.9032L10.3775 11.8796H9.06318V14.4325L11.8435 20.9032H9.77091V19.7405C9.77091 19.4574 9.29909 19.4372 9.06318 19.4625V23.0264C9.71024 23.0264 9.80461 22.8073 9.77091 22.6978V21.6868H12.2227L18.289 35.2348H18.5164L16.9746 30.5587C16.9746 30.5587 18.3395 30.0279 17.8845 28.8905C17.4296 27.753 14.6997 21.6868 14.6997 21.6868H17.8845V20.9032H14.2953Z" fill="url(#paint1_linear)"/>
<path fill-rule="evenodd" clip-rule="evenodd" d="M9.21486 10.5654C10.6946 10.5654 11.8941 9.36586 11.8941 7.88615C11.8941 6.40643 10.6946 5.20688 9.21486 5.20688C7.73514 5.20688 6.53559 6.40643 6.53559 7.88615C6.53559 9.36586 7.73514 10.5654 9.21486 10.5654ZM9.21486 12.0314C11.5042 12.0314 13.3601 10.1755 13.3601 7.88615C13.3601 5.59677 11.5042 3.74086 9.21486 3.74086C6.92549 3.74086 5.06958 5.59677 5.06958 7.88615C5.06958 10.1755 6.92549 12.0314 9.21486 12.0314Z" fill="#333333"/>
<path d="M8.45658 0H9.97315V3.99363H8.45658V0Z" fill="#333333"/>
</g>
<defs>
<linearGradient id="paint0_linear" x1="9.18956" y1="11.8796" x2="9.18956" y2="35.2348" gradientUnits="userSpaceOnUse">
<stop stop-color="#FFA948"/>
<stop offset="0.515625" stop-color="#FF6E14"/>
</linearGradient>
<linearGradient id="paint1_linear" x1="9.18956" y1="11.8796" x2="9.18956" y2="35.2348" gradientUnits="userSpaceOnUse">
<stop stop-color="#FFA948"/>
<stop offset="0.515625" stop-color="#FF6E14"/>
</linearGradient>
<clipPath id="clip0">
<rect width="110" height="35" fill="white"/>
</clipPath>
</defs>
</svg>
