<svg width="150" height="48" viewBox="0 0 150 48" fill="none" xmlns="http://www.w3.org/2000/svg">
<g clip-path="url(#clip0)">
<path d="M46.6702 24.3561C45.9315 24.7802 45.0354 25.1154 43.982 25.3616C42.9285 25.6079 41.8341 25.731 40.6985 25.731C39.1663 25.731 37.8598 25.5463 36.779 25.1769C35.7119 24.8076 34.9047 24.2945 34.3575 23.6378C33.8239 22.9812 33.5571 22.2219 33.5571 21.36C33.5571 20.6075 33.7623 19.944 34.1728 19.3694C34.5832 18.7948 35.151 18.3502 35.876 18.0355C35.3151 17.7482 34.8842 17.3515 34.5832 16.8453C34.2959 16.3254 34.1522 15.7577 34.1522 15.142C34.1522 14.3485 34.3985 13.6234 34.891 12.9668C35.3972 12.3101 36.1633 11.7834 37.1894 11.3866C38.2155 10.9899 39.4809 10.7915 40.9858 10.7915C41.9298 10.7915 42.8601 10.8804 43.7767 11.0583C44.6934 11.2361 45.5005 11.4755 46.1983 11.7765L45.0901 14.8137C43.8178 14.2528 42.5044 13.9723 41.15 13.9723C40.1787 13.9723 39.4536 14.1023 38.9748 14.3622C38.4959 14.6085 38.2565 14.9573 38.2565 15.4088C38.2565 16.2297 38.8516 16.6401 40.0419 16.6401H44.1051V19.7388H39.7751C39.0774 19.7388 38.5506 19.8551 38.1949 20.0877C37.8392 20.3066 37.6614 20.6349 37.6614 21.0727C37.6614 21.5378 37.9213 21.9004 38.4412 22.1603C38.9611 22.4202 39.7682 22.5502 40.8627 22.5502C41.6425 22.5502 42.4429 22.4476 43.2637 22.2424C44.0982 22.0235 44.8233 21.7294 45.439 21.36L46.6702 24.3561Z" fill="#333333"/>
<path d="M57.1292 19.6157C58.4015 20.0398 59.0377 20.9154 59.0377 22.2424C59.0377 23.2411 58.6478 24.0278 57.868 24.6023C57.0882 25.1633 55.939 25.4437 54.4204 25.4437H48.1614V14.3212H54.1331C55.5833 14.3212 56.7051 14.5743 57.4986 15.0805C58.3058 15.5867 58.7094 16.2981 58.7094 17.2147C58.7094 17.7482 58.5726 18.2202 58.2989 18.6306C58.0253 19.0411 57.6354 19.3694 57.1292 19.6157ZM51.65 18.7948H53.7843C54.6872 18.7948 55.1387 18.4596 55.1387 17.7893C55.1387 17.1463 54.6872 16.8248 53.7843 16.8248H51.65V18.7948ZM54.0716 22.9196C55.0155 22.9196 55.4875 22.5776 55.4875 21.8935C55.4875 21.2095 55.0292 20.8675 54.1126 20.8675H51.65V22.9196H54.0716Z" fill="#333333"/>
<path d="M66.2197 21.4831H64.9063V25.4437H61.0073V14.3212H64.9063V18.4254H66.3018L69.0311 14.3212H73.1559L69.421 19.6567L73.4021 25.4437H68.8054L66.2197 21.4831Z" fill="#333333"/>
<path d="M86.0226 14.3212V25.4437H82.1235V17.4199H79.3121L79.23 19.1232C79.1753 20.5733 79.0317 21.7704 78.7991 22.7144C78.5665 23.6584 78.1834 24.3971 77.6499 24.9307C77.1163 25.4506 76.3844 25.7105 75.4541 25.7105C74.9753 25.7105 74.346 25.6216 73.5662 25.4437L73.7303 22.2629C73.9766 22.2903 74.1408 22.304 74.2228 22.304C74.6469 22.304 74.9684 22.1672 75.1873 21.8935C75.4062 21.6199 75.5567 21.2574 75.6388 20.8059C75.7209 20.3408 75.7756 19.7251 75.803 18.959L75.9672 14.3212H86.0226Z" fill="#333333"/>
<path d="M100.094 14.3212V25.4437H96.3794V24.274C95.969 24.7118 95.4765 25.047 94.9019 25.2796C94.341 25.5121 93.739 25.6284 93.096 25.6284C91.6459 25.6284 90.4898 25.2043 89.6279 24.3561C88.7797 23.5079 88.3556 22.2356 88.3556 20.5391V14.3212H92.2547V19.903C92.2547 21.5036 92.8771 22.304 94.1221 22.304C94.7377 22.304 95.2371 22.0919 95.6202 21.6678C96.0032 21.23 96.1948 20.5665 96.1948 19.6772V14.3212H100.094Z" fill="#333333"/>
<path d="M114.552 14.3212V23.4121C114.552 25.4779 113.991 27.0239 112.869 28.0499C111.747 29.0897 110.133 29.6095 108.026 29.6095C106.932 29.6095 105.906 29.4864 104.948 29.2402C103.99 28.9939 103.176 28.6314 102.506 28.1525L103.922 25.4232C104.373 25.7926 104.941 26.0799 105.625 26.2851C106.323 26.504 107.007 26.6134 107.677 26.6134C108.703 26.6134 109.456 26.3877 109.935 25.9362C110.414 25.4848 110.653 24.8144 110.653 23.9251V23.5558C109.901 24.4313 108.799 24.8691 107.349 24.8691C106.364 24.8691 105.454 24.6502 104.62 24.2124C103.785 23.761 103.122 23.1317 102.629 22.3245C102.137 21.5036 101.89 20.5596 101.89 19.4925C101.89 18.4391 102.137 17.5088 102.629 16.7016C103.122 15.8808 103.785 15.2515 104.62 14.8137C105.454 14.3622 106.364 14.1365 107.349 14.1365C108.936 14.1365 110.099 14.6495 110.838 15.6756V14.3212H114.552ZM108.273 21.7704C108.97 21.7704 109.545 21.5584 109.996 21.1342C110.461 20.7101 110.694 20.1629 110.694 19.4925C110.694 18.8222 110.468 18.2818 110.017 17.8714C109.565 17.4473 108.984 17.2352 108.273 17.2352C107.561 17.2352 106.973 17.4473 106.508 17.8714C106.056 18.2818 105.83 18.8222 105.83 19.4925C105.83 20.1629 106.063 20.7101 106.528 21.1342C106.993 21.5584 107.575 21.7704 108.273 21.7704Z" fill="#333333"/>
<path d="M39.8832 30.8791V37.5763H38.008V32.3812H35.4631V37.5763H33.5975V30.8791H39.8832Z" fill="#333333"/>
<path d="M43.9842 32.3046C44.5519 32.3046 45.0462 32.4131 45.4671 32.6299C45.8881 32.8468 46.2102 33.1593 46.4334 33.5675C46.6631 33.9694 46.7779 34.4413 46.7779 34.9835C46.7779 35.5193 46.6726 35.9913 46.4622 36.3995C46.2517 36.8013 45.9551 37.1138 45.5724 37.3371C45.1897 37.5539 44.7464 37.6624 44.2425 37.6624C43.6493 37.6624 43.1837 37.4806 42.8457 37.117V39.4323H41.0279V35.0026C41.0279 34.4669 41.1491 33.9949 41.3914 33.5867C41.6338 33.1785 41.9782 32.8627 42.4247 32.6395C42.8712 32.4163 43.391 32.3046 43.9842 32.3046ZM43.8981 36.2177C44.2234 36.2177 44.4849 36.1061 44.6826 35.8828C44.8867 35.6532 44.9888 35.3534 44.9888 34.9835C44.9888 34.6136 44.8867 34.317 44.6826 34.0937C44.4849 33.8641 44.2234 33.7493 43.8981 33.7493C43.5728 33.7493 43.3113 33.8641 43.1136 34.0937C42.9158 34.317 42.817 34.6136 42.817 34.9835C42.817 35.3598 42.9127 35.6596 43.104 35.8828C43.3017 36.1061 43.5664 36.2177 43.8981 36.2177Z" fill="#333333"/>
<path d="M50.2109 37.6624C49.656 37.6624 49.1553 37.5476 48.7088 37.3179C48.2624 37.0883 47.9116 36.7694 47.6564 36.3612C47.4077 35.953 47.2833 35.4906 47.2833 34.9739C47.2833 34.4637 47.4077 34.0044 47.6564 33.5962C47.9116 33.188 48.2592 32.8723 48.6993 32.6491C49.1457 32.4194 49.6496 32.3046 50.2109 32.3046C50.7722 32.3046 51.2761 32.4194 51.7226 32.6491C52.169 32.8723 52.5167 33.188 52.7654 33.5962C53.0142 33.9981 53.1385 34.4573 53.1385 34.9739C53.1385 35.4906 53.0142 35.953 52.7654 36.3612C52.5167 36.7694 52.169 37.0883 51.7226 37.3179C51.2761 37.5476 50.7722 37.6624 50.2109 37.6624ZM50.2109 36.2177C50.5298 36.2177 50.7913 36.1093 50.9954 35.8924C51.1995 35.6692 51.3016 35.363 51.3016 34.9739C51.3016 34.5912 51.1995 34.2915 50.9954 34.0746C50.7913 33.8577 50.5298 33.7493 50.2109 33.7493C49.892 33.7493 49.6305 33.8577 49.4264 34.0746C49.2223 34.2915 49.1202 34.5912 49.1202 34.9739C49.1202 35.363 49.2223 35.6692 49.4264 35.8924C49.6305 36.1093 49.892 36.2177 50.2109 36.2177Z" fill="#333333"/>
<path d="M56.7369 36.2751C56.9857 36.2751 57.1993 36.24 57.3779 36.1699C57.5629 36.0997 57.7479 35.9849 57.9328 35.8254L58.88 36.8204C58.3889 37.3817 57.6554 37.6624 56.6795 37.6624C56.0736 37.6624 55.541 37.5476 55.0818 37.3179C54.6225 37.0883 54.2653 36.7694 54.0102 36.3612C53.7615 35.953 53.6371 35.4906 53.6371 34.9739C53.6371 34.4637 53.7615 34.0076 54.0102 33.6058C54.259 33.1976 54.6002 32.8787 55.0339 32.6491C55.474 32.4194 55.9651 32.3046 56.5073 32.3046C57.0112 32.3046 57.4704 32.4099 57.885 32.6204C58.306 32.8245 58.6408 33.1274 58.8896 33.5293C59.1383 33.9247 59.2627 34.3967 59.2627 34.9452L55.5601 35.6532C55.7578 36.0678 56.1501 36.2751 56.7369 36.2751ZM56.5169 33.5962C56.2043 33.5962 55.9492 33.6951 55.7515 33.8928C55.5537 34.0842 55.4421 34.3616 55.4166 34.7252L57.5214 34.3138C57.4576 34.0969 57.3365 33.9247 57.1579 33.7971C56.9793 33.6632 56.7656 33.5962 56.5169 33.5962Z" fill="#333333"/>
<path d="M62.5596 35.7298H61.9473V37.5763H60.1295V32.3907H61.9473V34.3042H62.5979L63.8704 32.3907H65.7934L64.0521 34.8783L65.9082 37.5763H63.7651L62.5596 35.7298Z" fill="#333333"/>
<path d="M73.2654 32.3046C73.9033 32.3046 74.4103 32.496 74.7866 32.8787C75.1693 33.2614 75.3607 33.8386 75.3607 34.6104V37.5763H73.5429V34.907C73.5429 34.5434 73.4727 34.2755 73.3324 34.1033C73.1985 33.9311 73.0071 33.845 72.7584 33.845C72.4841 33.845 72.264 33.9407 72.0982 34.132C71.9324 34.3233 71.8495 34.6136 71.8495 35.0026V37.5763H70.0317V34.907C70.0317 34.199 69.7702 33.845 69.2471 33.845C68.9665 33.845 68.7433 33.9407 68.5774 34.132C68.4116 34.3233 68.3287 34.6136 68.3287 35.0026V37.5763H66.5109V32.3907H68.2426V32.9361C68.4339 32.7256 68.6603 32.5693 68.9218 32.4673C69.1897 32.3589 69.4799 32.3046 69.7925 32.3046C70.156 32.3046 70.4813 32.3716 70.7684 32.5056C71.0554 32.6395 71.2882 32.8436 71.4668 33.1179C71.6709 32.8564 71.9292 32.6554 72.2417 32.5151C72.5543 32.3748 72.8955 32.3046 73.2654 32.3046Z" fill="#333333"/>
<path d="M76.4613 32.3907H78.2695V34.3138H80.1352V32.3907H81.953V37.5763H80.1352V35.7585H78.2695V37.5763H76.4613V32.3907Z" fill="#333333"/>
<path d="M85.6474 37.7293C83.9317 37.7293 83.0738 36.9926 83.0738 35.5193V32.3907H84.882V34.0363C85.016 33.947 85.1945 33.8737 85.4178 33.8163C85.6474 33.7589 85.9089 33.7302 86.2023 33.7302C86.8401 33.7302 87.3408 33.8928 87.7044 34.2181C88.068 34.537 88.2497 35.0122 88.2497 35.6436C88.2497 36.3261 88.0137 36.8459 87.5417 37.2031C87.0761 37.5539 86.4447 37.7293 85.6474 37.7293ZM88.6803 32.3907H90.4981V37.5763H88.6803V32.3907ZM85.6474 36.4856C85.8962 36.4856 86.0843 36.4122 86.2119 36.2655C86.3394 36.1188 86.4032 35.9243 86.4032 35.6819C86.4032 35.4459 86.3394 35.261 86.2119 35.127C86.0843 34.9931 85.8993 34.9261 85.657 34.9261C85.4848 34.9261 85.3317 34.958 85.1977 35.0218C85.0638 35.0856 84.9586 35.1717 84.882 35.2801V35.6819C84.882 35.9307 84.9458 36.1284 85.0734 36.2751C85.2009 36.4154 85.3923 36.4856 85.6474 36.4856Z" fill="#333333"/>
<path d="M94.4645 36.2751C94.7132 36.2751 94.9269 36.24 95.1055 36.1699C95.2905 36.0997 95.4754 35.9849 95.6604 35.8254L96.6076 36.8204C96.1165 37.3817 95.3829 37.6624 94.4071 37.6624C93.8011 37.6624 93.2686 37.5476 92.8093 37.3179C92.3501 37.0883 91.9929 36.7694 91.7378 36.3612C91.489 35.953 91.3647 35.4906 91.3647 34.9739C91.3647 34.4637 91.489 34.0076 91.7378 33.6058C91.9865 33.1976 92.3278 32.8787 92.7615 32.6491C93.2016 32.4194 93.6927 32.3046 94.2349 32.3046C94.7388 32.3046 95.198 32.4099 95.6126 32.6204C96.0335 32.8245 96.3684 33.1274 96.6171 33.5293C96.8659 33.9247 96.9903 34.3967 96.9903 34.9452L93.2877 35.6532C93.4854 36.0678 93.8777 36.2751 94.4645 36.2751ZM94.2444 33.5962C93.9319 33.5962 93.6768 33.6951 93.479 33.8928C93.2813 34.0842 93.1697 34.3616 93.1442 34.7252L95.249 34.3138C95.1852 34.0969 95.064 33.9247 94.8854 33.7971C94.7069 33.6632 94.4932 33.5962 94.2444 33.5962Z" fill="#333333"/>
<path d="M103.244 37.6624C102.67 37.6624 102.156 37.5476 101.703 37.3179C101.25 37.0883 100.896 36.7694 100.641 36.3612C100.393 35.953 100.268 35.4906 100.268 34.9739C100.268 34.4573 100.393 33.9981 100.641 33.5962C100.896 33.188 101.25 32.8723 101.703 32.6491C102.156 32.4194 102.67 32.3046 103.244 32.3046C103.83 32.3046 104.338 32.4322 104.765 32.6873C105.192 32.9361 105.495 33.2837 105.674 33.7302L104.267 34.4477C104.031 33.9821 103.687 33.7493 103.234 33.7493C102.909 33.7493 102.638 33.8577 102.421 34.0746C102.21 34.2915 102.105 34.5912 102.105 34.9739C102.105 35.363 102.21 35.6692 102.421 35.8924C102.638 36.1093 102.909 36.2177 103.234 36.2177C103.687 36.2177 104.031 35.9849 104.267 35.5193L105.674 36.2368C105.495 36.6833 105.192 37.0341 104.765 37.2892C104.338 37.538 103.83 37.6624 103.244 37.6624Z" fill="#333333"/>
<path d="M111.773 32.3907V37.5763H110.041V37.0309C109.85 37.235 109.62 37.3913 109.352 37.4997C109.091 37.6081 108.81 37.6624 108.51 37.6624C107.834 37.6624 107.295 37.4646 106.893 37.0692C106.498 36.6737 106.3 36.0806 106.3 35.2897V32.3907H108.118V34.9931C108.118 35.7393 108.408 36.1124 108.989 36.1124C109.276 36.1124 109.508 36.0136 109.687 35.8159C109.866 35.6118 109.955 35.3024 109.955 34.8878V32.3907H111.773Z" fill="#333333"/>
<path d="M115.595 37.6624C115.021 37.6624 114.508 37.5476 114.055 37.3179C113.602 37.0883 113.248 36.7694 112.993 36.3612C112.744 35.953 112.62 35.4906 112.62 34.9739C112.62 34.4573 112.744 33.9981 112.993 33.5962C113.248 33.188 113.602 32.8723 114.055 32.6491C114.508 32.4194 115.021 32.3046 115.595 32.3046C116.182 32.3046 116.689 32.4322 117.117 32.6873C117.544 32.9361 117.847 33.2837 118.025 33.7302L116.619 34.4477C116.383 33.9821 116.039 33.7493 115.586 33.7493C115.26 33.7493 114.989 33.8577 114.772 34.0746C114.562 34.2915 114.457 34.5912 114.457 34.9739C114.457 35.363 114.562 35.6692 114.772 35.8924C114.989 36.1093 115.26 36.2177 115.586 36.2177C116.039 36.2177 116.383 35.9849 116.619 35.5193L118.025 36.2368C117.847 36.6833 117.544 37.0341 117.117 37.2892C116.689 37.538 116.182 37.6624 115.595 37.6624Z" fill="#333333"/>
<path d="M125.54 32.3046C126.178 32.3046 126.685 32.496 127.061 32.8787C127.444 33.2614 127.636 33.8386 127.636 34.6104V37.5763H125.818V34.907C125.818 34.5434 125.748 34.2755 125.607 34.1033C125.473 33.9311 125.282 33.845 125.033 33.845C124.759 33.845 124.539 33.9407 124.373 34.132C124.207 34.3233 124.124 34.6136 124.124 35.0026V37.5763H122.307V34.907C122.307 34.199 122.045 33.845 121.522 33.845C121.241 33.845 121.018 33.9407 120.852 34.132C120.686 34.3233 120.604 34.6136 120.604 35.0026V37.5763H118.786V32.3907H120.517V32.9361C120.709 32.7256 120.935 32.5693 121.197 32.4673C121.465 32.3589 121.755 32.3046 122.067 32.3046C122.431 32.3046 122.756 32.3716 123.043 32.5056C123.33 32.6395 123.563 32.8436 123.742 33.1179C123.946 32.8564 124.204 32.6554 124.517 32.5151C124.829 32.3748 125.17 32.3046 125.54 32.3046Z" fill="#333333"/>
<path d="M131.482 36.2751C131.731 36.2751 131.944 36.24 132.123 36.1699C132.308 36.0997 132.493 35.9849 132.678 35.8254L133.625 36.8204C133.134 37.3817 132.4 37.6624 131.425 37.6624C130.819 37.6624 130.286 37.5476 129.827 37.3179C129.368 37.0883 129.01 36.7694 128.755 36.3612C128.507 35.953 128.382 35.4906 128.382 34.9739C128.382 34.4637 128.507 34.0076 128.755 33.6058C129.004 33.1976 129.345 32.8787 129.779 32.6491C130.219 32.4194 130.71 32.3046 131.252 32.3046C131.756 32.3046 132.215 32.4099 132.63 32.6204C133.051 32.8245 133.386 33.1274 133.635 33.5293C133.883 33.9247 134.008 34.3967 134.008 34.9452L130.305 35.6532C130.503 36.0678 130.895 36.2751 131.482 36.2751ZM131.262 33.5962C130.949 33.5962 130.694 33.6951 130.497 33.8928C130.299 34.0842 130.187 34.3616 130.162 34.7252L132.267 34.3138C132.203 34.0969 132.082 33.9247 131.903 33.7971C131.724 33.6632 131.511 33.5962 131.262 33.5962Z" fill="#333333"/>
<path d="M139.907 37.5763V34.8496L138.577 37.117H137.802L136.511 34.8113V37.5763H134.875V32.3907H136.788L138.233 35.0983L139.821 32.3907H141.533L141.543 37.5763H139.907Z" fill="#333333"/>
<path d="M145.238 37.7293C143.522 37.7293 142.664 36.9926 142.664 35.5193V32.3907H144.473V34.0363C144.606 33.947 144.785 33.8737 145.008 33.8163C145.238 33.7589 145.499 33.7302 145.793 33.7302C146.431 33.7302 146.931 33.8928 147.295 34.2181C147.658 34.537 147.84 35.0122 147.84 35.6436C147.84 36.3261 147.604 36.8459 147.132 37.2031C146.667 37.5539 146.035 37.7293 145.238 37.7293ZM148.271 32.3907H150.089V37.5763H148.271V32.3907ZM145.238 36.4856C145.487 36.4856 145.675 36.4122 145.802 36.2655C145.93 36.1188 145.994 35.9243 145.994 35.6819C145.994 35.4459 145.93 35.261 145.802 35.127C145.675 34.9931 145.49 34.9261 145.247 34.9261C145.075 34.9261 144.922 34.958 144.788 35.0218C144.654 35.0856 144.549 35.1717 144.473 35.2801V35.6819C144.473 35.9307 144.536 36.1284 144.664 36.2751C144.791 36.4154 144.983 36.4856 145.238 36.4856Z" fill="#333333"/>
<path d="M5.60072 28.6674L10.9737 16.2922H12.7762V19.7933L8.96317 28.6674H11.8056V27.0729C11.8056 26.6846 12.4527 26.6569 12.7762 26.6916V31.5792C11.8888 31.5792 11.7594 31.2788 11.8056 31.1286V29.742H8.4432L0.123747 48.3221H-0.188232L1.92629 41.9092C1.92629 41.9092 0.0544183 41.1813 0.678377 39.6214C1.30234 38.0615 5.04609 29.742 5.04609 29.742H0.678377V28.6674H5.60072Z" fill="url(#paint0_linear)"/>
<path d="M19.6051 28.6674L14.2322 16.2922H12.4296V19.7933L16.2427 28.6674H13.4002V27.0729C13.4002 26.6846 12.7531 26.6569 12.4296 26.6916V31.5792C13.317 31.5792 13.4464 31.2788 13.4002 31.1286V29.742H16.7627L25.0821 48.3221H25.3941L23.2796 41.9092C23.2796 41.9092 25.1514 41.1813 24.5275 39.6214C23.9035 38.0615 20.1598 29.742 20.1598 29.742H24.5275V28.6674H19.6051Z" fill="url(#paint1_linear)"/>
<path fill-rule="evenodd" clip-rule="evenodd" d="M12.6376 14.4897C14.6669 14.4897 16.312 12.8446 16.312 10.8153C16.312 8.78596 14.6669 7.14086 12.6376 7.14086C10.6083 7.14086 8.96317 8.78596 8.96317 10.8153C8.96317 12.8446 10.6083 14.4897 12.6376 14.4897ZM12.6376 16.5002C15.7773 16.5002 18.3226 13.955 18.3226 10.8153C18.3226 7.67557 15.7773 5.13033 12.6376 5.13033C9.49788 5.13033 6.95264 7.67557 6.95264 10.8153C6.95264 13.955 9.49788 16.5002 12.6376 16.5002Z" fill="#333333"/>
<path d="M11.5977 0H13.6775V5.47697H11.5977V0Z" fill="#333333"/>
</g>
<defs>
<linearGradient id="paint0_linear" x1="12.6029" y1="16.2922" x2="12.6029" y2="48.3221" gradientUnits="userSpaceOnUse">
<stop stop-color="#FFA948"/>
<stop offset="0.515625" stop-color="#FF6E14"/>
</linearGradient>
<linearGradient id="paint1_linear" x1="12.6029" y1="16.2922" x2="12.6029" y2="48.3221" gradientUnits="userSpaceOnUse">
<stop stop-color="#FFA948"/>
<stop offset="0.515625" stop-color="#FF6E14"/>
</linearGradient>
<clipPath id="clip0">
<rect width="150" height="48" fill="white"/>
</clipPath>
</defs>
</svg>
